USFL
nRows=119
nColumns=2
inDegrees=yes
endheader
time	soleus_r	
2.79133	 34.306902	
2.8629	 34.319323	
2.93448	 34.350597	
3.00605	 34.314071	
3.07762	 34.371623	
3.14919	 34.371605	
3.22077	 34.385915	
3.29234	 34.302900	
3.36391	 34.348553	
3.43548	 34.339206	
3.50706	 34.444180	
3.57863	 34.291862	
3.6502	 34.327316	
3.72177	 34.352804	
3.79335	 34.254046	
3.86492	 34.442312	
3.93649	 34.375659	
4.00806	 34.341107	
4.07964	 34.263748	
4.15121	 34.352650	
4.22278	 34.359223	
4.29435	 34.292878	
4.36593	 34.220985	
4.4375	 34.381202	
4.50907	 34.435964	
4.58065	 34.646946	
4.65222	 34.581945	
4.72379	 34.536355	
4.79536	 34.518805	
4.86694	 34.526199	
4.93851	 34.385294	
5.01008	 34.466342	
5.08165	 34.339442	
5.15323	 34.334917	
5.2248	 34.319603	
5.29637	 30.387539	
5.36794	 28.739189	
5.43952	 28.213903	
5.51109	 22.244311	
5.58266	 22.458297	
5.65423	 22.434829	
5.72581	 22.412969	
5.79738	 22.146186	
5.86895	 19.646819	
5.94052	 17.288412	
6.0121	 17.340217	
6.08367	 17.060883	
6.15524	 16.595512	
6.22681	 16.559336	
6.29839	 16.572892	
6.36996	 16.669462	
6.44153	 16.726070	
6.5131	 16.652166	
6.58468	 16.493136	
6.65625	 16.528660	
6.72782	 16.269732	
6.7994	 16.153280	
6.87097	 16.220319	
6.94254	 16.041411	
7.01411	 16.048612	
7.08569	 16.060466	
7.15726	 15.954285	
7.22883	 15.888586	
7.3004	 16.005996	
7.37198	 15.818630	
7.44355	 15.936000	
7.51512	 16.159552	
7.58669	 16.030688	
7.65827	 16.067405	
7.72984	 15.979915	
7.80141	 15.976629	
7.87298	 16.072439	
7.94456	 16.073224	
8.01613	 16.154409	
8.0877	 16.089167	
8.15927	 16.490230	
8.23085	 16.347764	
8.30242	 16.227864	
8.37399	 16.042693	
8.44556	 16.129528	
8.51714	 16.240622	
8.58871	 16.207533	
8.66028	 16.376153	
8.73185	 16.168630	
8.80343	 16.147248	
8.875	 16.142261	
8.94657	 15.946740	
9.01815	 15.884229	
9.08972	 15.949810	
9.16129	 15.945625	
9.23286	 15.959317	
9.30444	 16.098297	
9.37601	 16.358122	
9.44758	 16.254698	
9.51915	 16.231529	
9.59073	 16.161984	
9.6623	 16.169877	
9.73387	 16.269154	
9.80544	 16.257998	
9.87702	 16.369286	
9.94859	 16.428116	
10.0202	 16.352137	
10.0917	 16.245060	
10.1633	 16.322211	
10.2349	 16.366565	
10.3065	 16.449364	
10.378	 16.650723	
10.4496	 15.961242	
10.5212	 15.864810	
10.5927	 15.960119	
10.6643	 21.919617	
10.7359	 26.315090	
10.8075	 25.973235	
10.879	 25.665487	
10.9506	 25.764602	
11.0222	 25.845248	
11.0937	 25.972340	
11.1653	 25.956453	
11.2369	 25.991573	
